<?xml version="1.0" encoding="UTF-8"?>
<svg id="Capa_2" data-name="Capa 2" xmlns="http://www.w3.org/2000/svg" viewBox="0 0 535.1 100.3">
  <defs>
    <style>
      .cls-1 {
        fill: #fff;
      }
    </style>
  </defs>
  <g id="Layer_1" data-name="Layer 1">
    <g>
      <polygon class="cls-1" points="156.31 26.78 114.12 26.78 117.94 12.24 78.12 12.24 82.73 .79 0 .79 0 24.48 50.54 24.48 22.25 98.78 46.73 98.78 69.7 35.21 88.06 35.21 63.58 100.3 88.06 100.3 108 47.45 126.36 47.45 105.7 99.5 144.72 99.5 155.45 81.14 136.3 81.14 156.31 26.78"/>
      <polygon class="cls-1" points="369.72 19.15 375.12 .79 359.78 .79 349.85 .79 344.45 19.15 359.78 19.15 369.72 19.15"/>
      <path class="cls-1" d="M489.17,79.63c6.41-17.64,12.74-35.21,19.15-52.85h-48.24c-12.24.5-17.35,6.41-21.46,13.03-5.04,13.03-10.08,25.99-15.19,39.02h-25.34l12.24-34.42h16.85l5.33-16.85h-15.26l8.42-27.58h-21.46l-9.94,27.58h-16.85l-6.91,16.85h17.64l-13.03,33.62c-.36.79-.65,1.58-.94,2.3h-28.15l13.75-34.49,7.63-19.08h-25.27c-6.34,17.86-12.74,35.71-19.08,53.57h-19.94l-5.33-21.38,32.11-31.39h-26.78l-26.78,23.69L295.49,0h-24.48l-29.95,79.63h-19.01c6.41-17.64,12.74-35.21,19.15-52.85h-48.24c-12.24.5-17.35,6.41-21.46,13.03-5.33,13.75-10.73,27.58-16.06,41.33-2.52,7.13,0,13.25,7.63,18.36h22.25c3.17-3.38,6.34-6.77,9.58-10.15.58-.72,1.22-1.37,1.87-2.09-1.01,8.21,3.1,12.24,12.24,12.24h20.74c2.95-4.61,5.98-9.21,9-13.82l-5.18,13.82,25.27.79,15.19-39.82,9.94,39.02h26.86c3.82-4.82,7.63-9.65,11.45-14.54-.79,9.72,4.61,14.33,16.06,13.82h22.25l12.74-13.39c0,5.76,3.67,10.44,10.94,14.11h26.86l10.51-12.38c.29,4.68,3.17,8.78,8.57,12.38h22.25c3.17-3.38,6.34-6.77,9.58-10.15.58-.72,1.22-1.37,1.87-2.09-1.01,8.21,3.1,12.24,12.24,12.24h58.97v-19.87h-45.94ZM197.57,80.35h-18.43l13.03-34.42h18.43l-13.03,34.42ZM464.69,80.35h-18.43l13.03-34.42h18.43l-13.03,34.42Z"/>
    </g>
  </g>
</svg>